<mxfile host="app.diagrams.net" modified="2023-02-15T18:56:36.552Z" agent="5.0 (Macintosh; Intel Mac OS X 10_15_7) AppleWebKit/537.36 (KHTML, like Gecko) Chrome/109.0.0.0 Safari/537.36" etag="WHvCS7XWp04dOa4qa7dU" version="20.8.20" type="github">
  <diagram name="Page-1" id="sn8HnhfR44redB4ufx6G">
    <mxGraphModel dx="954" dy="648" grid="1" gridSize="10" guides="1" tooltips="1" connect="1" arrows="1" fold="1" page="1" pageScale="1" pageWidth="850" pageHeight="1100" math="0" shadow="0">
      <root>
        <mxCell id="0" />
        <mxCell id="1" parent="0" />
        <mxCell id="9ZcYs3UVr_bnORR8W4dy-1" value="" style="rounded=0;whiteSpace=wrap;html=1;" vertex="1" parent="1">
          <mxGeometry x="40" y="20" width="210" height="310" as="geometry" />
        </mxCell>
        <mxCell id="9ZcYs3UVr_bnORR8W4dy-2" value="Login via Google" style="rounded=0;whiteSpace=wrap;html=1;" vertex="1" parent="1">
          <mxGeometry x="92.5" y="180" width="105" height="45" as="geometry" />
        </mxCell>
      </root>
    </mxGraphModel>
  </diagram>
</mxfile>
